# xmcd
#
# Track frame offsets: 
#        150
#        20704
#        40457
#        63020
#        82213
#        102742
#        121884
#        142156
#        162117
#        180179
#        203719
#        225435
#        250597
#
# Disc length: 3605 seconds
#
# Revision: 0
# Processed by: cddbd v1.5.2PL0 Copyright (c) Steve Scherf et al.
# Submitted via: ExactAudioCopyFreeDBPlugin 1.0
#
DISCID=ab0e130d
DTITLE=Anyah - Mankafy
DYEAR=2006
DGENRE=R&B
TTITLE0=Mankafy Feat. Xtah
TTITLE1=Ambarao
TTITLE2=Fantatro Fa
TTITLE3=Diniho Ihany !
TTITLE4=Tsisy Hafa Tsy Anao
TTITLE5=Tongava
TTITLE6=Miandry Anao
TTITLE7=Tsy Ampy Feo Faharoa
TTITLE8=Ianao Feat. Spear O'Mic
TTITLE9=Mahatsiaro Anao
TTITLE10=Efa Voasoratra Feat. Rotsy (Bonus Track)
TTITLE11=Reny Feat. Tovo J'Hay
TTITLE12=Ampahafantaro Feat Hents
EXTD=
EXTT0=
EXTT1=
EXTT2=
EXTT3=
EXTT4=
EXTT5=
EXTT6=
EXTT7=
EXTT8=
EXTT9=
EXTT10=
EXTT11=
EXTT12=
PLAYORDER=
